<?xml version="1.0" encoding="UTF-8"?>
<svg version="1.1" xmlns="http://www.w3.org/2000/svg" width="255" height="51">
<path d="M0 0 C84.15 0 168.3 0 255 0 C255 16.83 255 33.66 255 51 C170.85 51 86.7 51 0 51 C0 34.17 0 17.34 0 0 Z " fill="#030303" transform="translate(0,0)"/>
<path d="M0 0 C0.48842105 7.32631579 0.48842105 7.32631579 -1.8125 10.5 C-4 12 -4 12 -7 12 C-7.33 12.99 -7.66 13.98 -8 15 C-2.06 15 3.88 15 10 15 C10.33 13.02 10.66 11.04 11 9 C12.70620381 5.97450105 14.75609658 3.38325673 18.16796875 2.33203125 C18.77253906 2.22246094 19.37710938 2.11289062 20 2 C19.85851011 3.6045556 19.71164314 5.20863767 19.5625 6.8125 C19.48128906 7.70582031 19.40007812 8.59914063 19.31640625 9.51953125 C19 12 19 12 18 15 C19.32 15 20.64 15 22 15 C22.04125 13.783125 22.0825 12.56625 22.125 11.3125 C22.53624536 7.85681136 23.27055124 6.25165747 25.9375 4 C29 2 29 2 31 2 C30.67 5.96 30.34 9.92 30 14 C32.75059381 14.08107646 35.49879021 14.14052813 38.25 14.1875 C39.02730469 14.21263672 39.80460937 14.23777344 40.60546875 14.26367188 C45.30140592 14.34061028 45.30140592 14.34061028 49.546875 12.48828125 C50.02640625 11.99714844 50.5059375 11.50601563 51 11 C51 12.32 51 13.64 51 15 C59.31010784 14.89257473 67.62012197 14.77995699 75.93006706 14.66066074 C79.78847246 14.60543434 83.64688544 14.55201481 87.50537109 14.50268555 C91.22718122 14.45503779 94.94889809 14.40269486 98.67059708 14.34705925 C100.09237478 14.32663755 101.51417806 14.30792415 102.93600082 14.29092598 C104.92337631 14.26687819 106.91066905 14.23626002 108.89794922 14.20532227 C110.03046112 14.18977798 111.16297302 14.1742337 112.32980347 14.15821838 C114.97327793 14.17732998 114.97327793 14.17732998 117 13 C117 17.95 117 22.9 117 28 C73.11 28 29.22 28 -16 28 C-8.75039746 6.25119237 -8.75039746 6.25119237 -4 1 C-2 0 -2 0 0 0 Z " fill="#040404" transform="translate(138,23)"/>
<path d="M0 0 C1.32 0.33 2.64 0.66 4 1 C3.67 1.66 3.34 2.32 3 3 C3.99 3.33 4.98 3.66 6 4 C6 4.66 6 5.32 6 6 C4.35 6 2.7 6 1 6 C-0.72427085 14.42796483 -0.72427085 14.42796483 -1 23 C0.98 23.33 2.96 23.66 5 24 C5.07347656 23.11248047 5.07347656 23.11248047 5.1484375 22.20703125 C5.56456867 17.80895528 6.04965595 14.03071103 8 10 C8.99 10 9.98 10 11 10 C10.33333333 14.66666667 9.66666667 19.33333333 9 24 C10.98 24 12.96 24 15 24 C15.01417969 23.40832031 15.02835938 22.81664063 15.04296875 22.20703125 C15.30034701 17.9428995 15.64038392 15.51827024 18.125 11.9375 C21.68592415 9.53774677 23.7871601 9.51390309 28 10 C29 11 29 11 29.25 13.4375 C29.1675 14.283125 29.085 15.12875 29 16 C28.01 16.66 27.02 17.32 26 18 C25 15 25 15 26 12 C22.37206002 13.86566488 22.37206002 13.86566488 20 17 C20 18.98 20 20.96 20 23 C29.57 23.33 39.14 23.66 49 24 C48.67 24.99 48.34 25.98 48 27 C26.88 27 5.76 27 -16 27 C-16.495 25.515 -16.495 25.515 -17 24 C-17.4129834 24.48823242 -17.8259668 24.97646484 -18.25146484 25.47949219 C-21.20348534 28.04653822 -24.90592474 27.34819341 -28.625 27.25 C-29.41390625 27.24484375 -30.2028125 27.2396875 -31.015625 27.234375 C-36.84576437 27.15423563 -36.84576437 27.15423563 -38 26 C-37.9140625 24.0390625 -37.9140625 24.0390625 -37.625 21.625 C-37.53476563 20.83351563 -37.44453125 20.04203125 -37.3515625 19.2265625 C-37 17 -37 17 -36 14 C-40.86154897 16.70492011 -40.86154897 16.70492011 -43.91015625 21.11328125 C-44.37548059 23.05385609 -44.69906987 25.02723582 -45 27 C-46.32 27 -47.64 27 -49 27 C-48.34 22.71 -47.68 18.42 -47 14 C-53.09381061 17.185401 -54.56167055 20.62283066 -57 27 C-62.94 27 -68.88 27 -75 27 C-74.67 25.68 -74.34 24.36 -74 23 C-72.35 22.67 -70.7 22.34 -69 22 C-68.34 18.7 -67.68 15.4 -67 12 C-73.46216355 15.23108177 -75.32099687 20.56727737 -78 27 C-78.82276541 29.70235881 -79.55697764 32.37844188 -80.1640625 35.13671875 C-80.43992188 35.75160156 -80.71578125 36.36648437 -81 37 C-83.0859375 37.76953125 -83.0859375 37.76953125 -85 38 C-84.53199289 33.94393835 -84.12046792 30.53411321 -82 27 C-84.64 27 -87.28 27 -90 27 C-90.495 25.515 -90.495 25.515 -91 24 C-91.51175781 24.48984375 -92.02351563 24.9796875 -92.55078125 25.484375 C-95.87581021 27.54196868 -98.3083936 27.33039599 -102.1875 27.25 C-104.06501953 27.22679687 -104.06501953 27.22679687 -105.98046875 27.203125 C-109 27 -109 27 -110 26 C-110.24661958 21.06760838 -110.25068913 17.50137826 -108 13 C-113.16487639 15.86937577 -116.33709612 18.01128837 -118.25 23.75 C-118.4975 24.8225 -118.745 25.895 -119 27 C-120.32 27 -121.64 27 -123 27 C-121.68 21.72 -120.36 16.44 -119 11 C-117.68 10.67 -116.36 10.34 -115 10 C-115 10.99 -115 11.98 -115 13 C-114.443125 12.505 -113.88625 12.01 -113.3125 11.5 C-110.60483847 9.74367901 -109.16620913 9.65770712 -106 10 C-105 11 -105 11 -104.8125 14.1875 C-104.99348731 17.86757532 -105.66886692 20.58897147 -107 24 C-105.35 24 -103.7 24 -102 24 C-102.12375 22.1746875 -102.12375 22.1746875 -102.25 20.3125 C-102.25 17.02392956 -102.03575516 16.05874062 -100.25 13.125 C-98.14948472 11.14118001 -96.74572145 9.85803795 -94 9 C-91.875 9.375 -91.875 9.375 -90 10 C-87.57202689 10 -85.37092995 9.49914315 -83 9 C-84 14 -85 19 -86 24 C-84.35 23.67 -82.7 23.34 -81 23 C-79.35 17.72 -77.7 12.44 -76 7 C-75.01 7 -74.02 7 -73 7 C-73.33 9.31 -73.66 11.62 -74 14 C-73.46375 13.34 -72.9275 12.68 -72.375 12 C-70 10 -70 10 -66.75 9.75 C-65.8425 9.8325 -64.935 9.915 -64 10 C-62.76949311 12.46101378 -63.01399925 13.72426183 -63.3125 16.4375 C-63.39113281 17.21996094 -63.46976563 18.00242187 -63.55078125 18.80859375 C-64 21 -64 21 -66 24 C-64.02 24 -62.04 24 -60 24 C-59.79503906 23.16855469 -59.59007812 22.33710937 -59.37890625 21.48046875 C-58.97478516 19.85044922 -58.97478516 19.85044922 -58.5625 18.1875 C-58.29566406 17.10855469 -58.02882813 16.02960937 -57.75390625 14.91796875 C-57.23922588 12.9259157 -56.65062825 10.95188476 -56 9 C-54.68 9 -53.36 9 -52 9 C-52 10.32 -52 11.64 -52 13 C-51.443125 12.484375 -50.88625 11.96875 -50.3125 11.4375 C-48 10 -48 10 -45.25 10.3125 C-44.5075 10.539375 -43.765 10.76625 -43 11 C-42.505 12.485 -42.505 12.485 -42 14 C-41.443125 13.505 -40.88625 13.01 -40.3125 12.5 C-37.60483847 10.74367901 -36.16620913 10.65770712 -33 11 C-32.505 11.495 -32.505 11.495 -32 12 C-32.27539746 14.34087842 -32.6186926 16.67402489 -33 19 C-33.2784375 20.7015625 -33.2784375 20.7015625 -33.5625 22.4375 C-33.706875 23.283125 -33.85125 24.12875 -34 25 C-31.69 25 -29.38 25 -27 25 C-27.495 24.01 -27.495 24.01 -28 23 C-28.44408691 19.0920352 -28.13704844 17.25451854 -26.25 13.75 C-23.0701107 9.86346863 -23.0701107 9.86346863 -20 9 C-16.94134325 9.37074627 -15.64831694 10.23445537 -13 12 C-13 11.34 -13 10.68 -13 10 C-12.01 10 -11.02 10 -10 10 C-10.66666667 14.66666667 -11.33333333 19.33333333 -12 24 C-10.02 24 -8.04 24 -6 24 C-6.061875 22.88625 -6.12375 21.7725 -6.1875 20.625 C-6.21538129 15.43908031 -4.6739295 10.86236666 -3 6 C-4.32 6 -5.64 6 -7 6 C-7 5.34 -7 4.68 -7 4 C-5.02 4 -3.04 4 -1 4 C-0.67 2.68 -0.34 1.36 0 0 Z " fill="#E7E7E7" transform="translate(205,11)"/>
<path d="M0 0 C0.79052765 -0.00570007 1.5810553 -0.01140015 2.39553833 -0.01727295 C4.07178401 -0.02673708 5.74804842 -0.03326252 7.42431641 -0.03710938 C9.99023933 -0.04680857 12.55535927 -0.07781494 15.12109375 -0.109375 C16.74739106 -0.11590543 18.37369412 -0.12115574 20 -0.125 C20.76883514 -0.1373468 21.53767029 -0.1496936 22.32980347 -0.16241455 C25.20030245 -0.1504046 27.54263436 -0.1107375 30.10913086 1.25415039 C31.7048279 4.29217793 31.61418683 7.36053031 31.64453125 10.71484375 C31.66248245 11.44306839 31.68043365 12.17129303 31.69892883 12.92158508 C31.75305463 15.24453971 31.7869333 17.56728866 31.8203125 19.890625 C31.85348375 21.46682551 31.88797323 23.04299888 31.92382812 24.61914062 C32.0087818 28.48032036 32.07558126 32.34143887 32.1328125 36.203125 C36.34166497 36.09281414 40.54965804 35.96228508 44.7578125 35.828125 C45.94761719 35.7971875 47.13742188 35.76625 48.36328125 35.734375 C49.51699219 35.69570313 50.67070313 35.65703125 51.859375 35.6171875 C52.91721191 35.5857666 53.97504883 35.5543457 55.06494141 35.52197266 C58.32483249 35.18316812 61.07038705 34.34701917 64.1328125 33.203125 C64.1328125 31.553125 64.1328125 29.903125 64.1328125 28.203125 C63.38515625 27.81640625 62.6375 27.4296875 61.8671875 27.03125 C60.88234375 26.51046875 59.8975 25.9896875 58.8828125 25.453125 C57.90828125 24.94265625 56.93375 24.4321875 55.9296875 23.90625 C53.17468555 22.22862311 51.19380265 20.67727401 49.1328125 18.203125 C48.5703125 14.765625 48.5703125 14.765625 49.1328125 11.203125 C51.3203125 8.453125 51.3203125 8.453125 54.1328125 6.203125 C54.8753125 5.605 55.6178125 5.006875 56.3828125 4.390625 C60.24805954 2.72154105 63.97596304 2.6037291 68.1328125 3.203125 C69.1228125 3.863125 70.1128125 4.523125 71.1328125 5.203125 C71.6328125 8.078125 71.6328125 8.078125 71.1328125 11.203125 C67.82180041 14.80628522 64.9412312 15.75583024 60.1328125 16.203125 C60.1328125 15.213125 60.1328125 14.223125 60.1328125 13.203125 C61.92317708 12.25911458 63.71354167 11.31510417 65.50390625 10.37109375 C67.45549237 9.21292701 67.45549237 9.21292701 68.1328125 6.203125 C60.2886931 7.45914184 60.2886931 7.45914184 54.1328125 12.203125 C53.97117697 15.29702817 53.97117697 15.29702817 54.1328125 18.203125 C55.50566406 18.90888672 55.50566406 18.90888672 56.90625 19.62890625 C58.10697988 20.25741329 59.3074893 20.88634163 60.5078125 21.515625 C61.11109375 21.82435547 61.714375 22.13308594 62.3359375 22.45117188 C65.51539575 24.12921928 67.09818802 25.15118828 69.1328125 28.203125 C69.5703125 31.140625 69.5703125 31.140625 69.1328125 34.203125 C64.44738597 38.88855153 60.51373287 39.33203917 54.09375 39.484375 C53.41228912 39.50278442 52.73082825 39.52119385 52.02871704 39.54016113 C49.11533164 39.61879186 46.20172269 39.68679231 43.28808594 39.75537109 C41.16068649 39.80697023 39.03349325 39.86424646 36.90625 39.921875 C35.63185059 39.95216797 34.35745117 39.98246094 33.04443359 40.01367188 C30.24147109 39.87456583 30.24147109 39.87456583 29.1328125 41.203125 C26.34457512 41.3165765 23.58203905 41.36730763 20.79296875 41.37109375 C19.95567734 41.37442215 19.11838593 41.37775055 18.25572205 41.38117981 C16.48111522 41.38625256 14.70649883 41.38858803 12.93188477 41.38842773 C10.21028994 41.39061297 7.48910107 41.40876133 4.76757812 41.42773438 C3.04687639 41.43066842 1.32617273 41.43265314 -0.39453125 41.43359375 C-1.21227524 41.44077927 -2.03001923 41.44796478 -2.87254333 41.45536804 C-8.63836546 41.43194704 -8.63836546 41.43194704 -10.8671875 39.203125 C-11.09423828 36.58935547 -11.09423828 36.58935547 -11.0625 33.3203125 C-11.05605469 32.15371094 -11.04960937 30.98710937 -11.04296875 29.78515625 C-11.02621094 28.56183594 -11.00945313 27.33851562 -10.9921875 26.078125 C-10.98316406 24.84707031 -10.97414063 23.61601562 -10.96484375 22.34765625 C-10.94121383 19.29939694 -10.90534189 16.25123711 -10.8671875 13.203125 C-6.9071875 13.203125 -2.9471875 13.203125 1.1328125 13.203125 C0.1428125 14.688125 0.1428125 14.688125 -0.8671875 16.203125 C-0.64934338 18.4748746 -0.64934338 18.4748746 0.1328125 21.203125 C0.24625 21.92371094 0.3596875 22.64429687 0.4765625 23.38671875 C1.15672449 27.36959043 1.66884425 29.67471671 4.3828125 32.765625 C7.64209889 34.46934289 9.50116566 34.66673949 13.1328125 34.203125 C15.68321964 33.35298929 16.78575826 32.67164822 18.3828125 30.515625 C19.84407542 26.01006434 19.57193191 22.34483546 17.8828125 17.953125 C16.182504 15.28121164 14.79923537 13.85814609 12.1328125 12.203125 C14.1328125 10.203125 14.1328125 10.203125 16.7578125 10.078125 C17.5415625 10.119375 18.3253125 10.160625 19.1328125 10.203125 C19.1328125 7.893125 19.1328125 5.583125 19.1328125 3.203125 C16.1628125 3.203125 13.1928125 3.203125 10.1328125 3.203125 C10.1328125 5.513125 10.1328125 7.823125 10.1328125 10.203125 C5.66947066 11.92605635 2.03080019 12.42553291 -2.7421875 12.328125 C-4.47082031 12.30105469 -4.47082031 12.30105469 -6.234375 12.2734375 C-7.10320313 12.25023437 -7.97203125 12.22703125 -8.8671875 12.203125 C-8.8671875 10.553125 -8.8671875 8.903125 -8.8671875 7.203125 C-8.5371875 8.193125 -8.2071875 9.183125 -7.8671875 10.203125 C-6.2171875 10.203125 -4.5671875 10.203125 -2.8671875 10.203125 C-2.8671875 8.883125 -2.8671875 7.563125 -2.8671875 6.203125 C-4.8471875 6.203125 -6.8271875 6.203125 -8.8671875 6.203125 C-8.9099085 4.53700595 -8.90782582 2.86929615 -8.8671875 1.203125 C-6.85006231 -0.81400019 -2.76766554 0.01521864 0 0 Z " fill="#A5A6A5" transform="translate(11.8671875,-0.203125)"/>
<path d="M0 0 C0.99 0 1.98 0 3 0 C2.67 2.31 2.34 4.62 2 7 C2.99 7 3.98 7 5 7 C4.61328125 7.57105469 4.2265625 8.14210938 3.828125 8.73046875 C-0.05292937 14.77300142 -2.23629146 20.43572278 -3.9453125 27.41015625 C-4.46738281 28.69212891 -4.46738281 28.69212891 -5 30 C-7.1171875 30.87109375 -7.1171875 30.87109375 -9 31 C-8.53199289 26.94393835 -8.12046792 23.53411321 -6 20 C-8.64 20 -11.28 20 -14 20 C-14.495 18.515 -14.495 18.515 -15 17 C-15.51175781 17.48984375 -16.02351563 17.9796875 -16.55078125 18.484375 C-19.87581021 20.54196868 -22.3083936 20.33039599 -26.1875 20.25 C-28.06501953 20.22679687 -28.06501953 20.22679687 -29.98046875 20.203125 C-33 20 -33 20 -34 19 C-34.24661958 14.06760838 -34.25068913 10.50137826 -32 6 C-37.16487639 8.86937577 -40.33709612 11.01128837 -42.25 16.75 C-42.4975 17.8225 -42.745 18.895 -43 20 C-44.32 20 -45.64 20 -47 20 C-45.68 14.72 -44.36 9.44 -43 4 C-41.68 3.67 -40.36 3.34 -39 3 C-39 3.99 -39 4.98 -39 6 C-38.443125 5.505 -37.88625 5.01 -37.3125 4.5 C-34.60483847 2.74367901 -33.16620913 2.65770712 -30 3 C-29 4 -29 4 -28.8125 7.1875 C-28.99348731 10.86757532 -29.66886692 13.58897147 -31 17 C-29.35 17 -27.7 17 -26 17 C-26.0825 15.783125 -26.165 14.56625 -26.25 13.3125 C-26.25 10.02392956 -26.03575516 9.05874062 -24.25 6.125 C-22.14948472 4.14118001 -20.74572145 2.85803795 -18 2 C-15.875 2.375 -15.875 2.375 -14 3 C-11.57202689 3 -9.37092995 2.49914315 -7 2 C-8 7 -9 12 -10 17 C-8.35 16.67 -6.7 16.34 -5 16 C-3.35 10.72 -1.7 5.44 0 0 Z " fill="#E5E5E5" transform="translate(129,18)"/>
<path d="M0 0 C0.33 0 0.66 0 1 0 C1 1.65 1 3.3 1 5 C2.98 5 4.96 5 7 5 C7 6.32 7 7.64 7 9 C5.35 9 3.7 9 2 9 C1.67 9.66 1.34 10.32 1 11 C3.04190981 10.85761163 5.08352045 10.71092972 7.125 10.5625 C8.83042969 10.44068359 8.83042969 10.44068359 10.5703125 10.31640625 C13.7540478 10.02269035 16.85510907 9.56875687 20 9 C20 6.69 20 4.38 20 2 C22.97 2 25.94 2 29 2 C29.3125 5.3125 29.3125 5.3125 29 9 C26.5 10.9375 26.5 10.9375 24 12 C24.61875 12.391875 25.2375 12.78375 25.875 13.1875 C29.39482284 16.18970184 29.90833362 18.97333653 30.3125 23.5 C29.97497424 27.28028856 29.35467951 29.05665061 27 32 C23.78446554 34.32849047 20.88978623 34.54457007 17 34 C13.49580399 31.91096007 11.62720071 30.60952877 10.14453125 26.8046875 C9.1697967 22.84033089 8.7737855 19.94715762 10 16 C9.34 15.67 8.68 15.34 8 15 C8.66 14.34 9.32 13.68 10 13 C6.37 12.67 2.74 12.34 -1 12 C-1.125 2.25 -1.125 2.25 0 0 Z " fill="#3B2A78" transform="translate(2,1)"/>
<path d="M0 0 C1.32 0 2.64 0 4 0 C4 1.32 4 2.64 4 4 C4.556875 3.484375 5.11375 2.96875 5.6875 2.4375 C8 1 8 1 10.75 1.3125 C11.4925 1.539375 12.235 1.76625 13 2 C13.495 3.485 13.495 3.485 14 5 C14.556875 4.505 15.11375 4.01 15.6875 3.5 C18.39516153 1.74367901 19.83379087 1.65770712 23 2 C23.495 2.495 23.495 2.495 24 3 C23.72460254 5.34087842 23.3813074 7.67402489 23 10 C22.7215625 11.7015625 22.7215625 11.7015625 22.4375 13.4375 C22.293125 14.283125 22.14875 15.12875 22 16 C24.31 16 26.62 16 29 16 C28.505 15.01 28.505 15.01 28 14 C27.55591309 10.0920352 27.86295156 8.25451854 29.75 4.75 C32.9298893 0.86346863 32.9298893 0.86346863 36 0 C38.25 0.375 38.25 0.375 40 1 C38.62736683 3.74526635 36.59407253 4.44355648 34 6 C32.64560332 8.70879335 32.93498549 11.00933268 33 14 C34.65 14 36.3 14 38 14 C37.34 15.32 36.68 16.64 36 18 C33.18743719 18.02684312 30.37512759 18.04676188 27.5625 18.0625 C26.76005859 18.07087891 25.95761719 18.07925781 25.13085938 18.08789062 C23.08704779 18.0965143 21.04316098 18.0522815 19 18 C18.67 17.67 18.34 17.34 18 17 C18.0859375 15.0390625 18.0859375 15.0390625 18.375 12.625 C18.51035156 11.43777344 18.51035156 11.43777344 18.6484375 10.2265625 C19 8 19 8 20 5 C15.13845103 7.70492011 15.13845103 7.70492011 12.08984375 12.11328125 C11.62451941 14.05385609 11.30093013 16.02723582 11 18 C9.68 18 8.36 18 7 18 C7.66 13.71 8.32 9.42 9 5 C2.90618939 8.185401 1.43832945 11.62283066 -1 18 C-6.94 18 -12.88 18 -19 18 C-18.67 16.68 -18.34 15.36 -18 14 C-16.35 13.67 -14.7 13.34 -13 13 C-12.34 9.7 -11.68 6.4 -11 3 C-12.65 3.33 -14.3 3.66 -16 4 C-15.34 3.01 -14.68 2.02 -14 1 C-10.875 0.8125 -10.875 0.8125 -8 1 C-6.76949311 3.46101378 -7.01399925 4.72426183 -7.3125 7.4375 C-7.43044922 8.61119141 -7.43044922 8.61119141 -7.55078125 9.80859375 C-8 12 -8 12 -10 15 C-8.02 15 -6.04 15 -4 15 C-3.79503906 14.16855469 -3.59007812 13.33710937 -3.37890625 12.48046875 C-3.10949219 11.39378906 -2.84007812 10.30710937 -2.5625 9.1875 C-2.29566406 8.10855469 -2.02882812 7.02960937 -1.75390625 5.91796875 C-1.23922588 3.9259157 -0.65062825 1.95188476 0 0 Z " fill="#E6E6E6" transform="translate(149,20)"/>
<path d="M0 0 C0.79289932 -0.0033284 1.58579865 -0.0066568 2.40272522 -0.01008606 C4.08317483 -0.01515851 5.76363454 -0.01749429 7.4440918 -0.01733398 C10.02083884 -0.01951911 12.59715701 -0.03766734 15.17382812 -0.05664062 C16.80338395 -0.0595747 18.43294181 -0.0615594 20.0625 -0.0625 C20.83649643 -0.06968552 21.61049286 -0.07687103 22.40794373 -0.08427429 C27.86883372 -0.06085378 27.86883372 -0.06085378 30.09765625 2.16796875 C30.328125 4.515625 30.328125 4.515625 30.28515625 7.23046875 C30.27871094 8.12894531 30.27226563 9.02742187 30.265625 9.953125 C30.09765625 12.16796875 30.09765625 12.16796875 29.09765625 13.16796875 C27.57837587 13.23976839 26.05598143 13.25188882 24.53515625 13.23046875 C23.70886719 13.22144531 22.88257812 13.21242188 22.03125 13.203125 C21.39316406 13.19152344 20.75507812 13.17992187 20.09765625 13.16796875 C21.08765625 14.31265625 21.08765625 14.31265625 22.09765625 15.48046875 C25.15613526 19.94972505 24.43016292 24.97717024 24.09765625 30.16796875 C23.10765625 30.49796875 22.11765625 30.82796875 21.09765625 31.16796875 C21.15566406 30.43191406 21.21367188 29.69585938 21.2734375 28.9375 C21.67789711 22.61728702 21.67789711 22.61728702 18.84765625 17.16796875 C17.94015625 16.50796875 17.03265625 15.84796875 16.09765625 15.16796875 C14.95296875 14.27078125 14.95296875 14.27078125 13.78515625 13.35546875 C13.22828125 12.96359375 12.67140625 12.57171875 12.09765625 12.16796875 C14.09765625 10.16796875 14.09765625 10.16796875 16.72265625 10.04296875 C17.50640625 10.08421875 18.29015625 10.12546875 19.09765625 10.16796875 C19.09765625 7.85796875 19.09765625 5.54796875 19.09765625 3.16796875 C16.12765625 3.16796875 13.15765625 3.16796875 10.09765625 3.16796875 C10.09765625 5.47796875 10.09765625 7.78796875 10.09765625 10.16796875 C5.63431441 11.8909001 1.99564394 12.39037666 -2.77734375 12.29296875 C-3.92976562 12.27492188 -5.0821875 12.256875 -6.26953125 12.23828125 C-7.13835938 12.21507812 -8.0071875 12.191875 -8.90234375 12.16796875 C-8.90234375 10.51796875 -8.90234375 8.86796875 -8.90234375 7.16796875 C-8.57234375 8.15796875 -8.24234375 9.14796875 -7.90234375 10.16796875 C-6.25234375 10.16796875 -4.60234375 10.16796875 -2.90234375 10.16796875 C-2.90234375 8.84796875 -2.90234375 7.52796875 -2.90234375 6.16796875 C-4.88234375 6.16796875 -6.86234375 6.16796875 -8.90234375 6.16796875 C-8.94506475 4.5018497 -8.94298207 2.8341399 -8.90234375 1.16796875 C-6.88259642 -0.85177858 -2.77149858 0.00397436 0 0 Z " fill="#CACACA" transform="translate(11.90234375,-0.16796875)"/>
<path d="M0 0 C0.99 0.66 1.98 1.32 3 2 C3.5 4.875 3.5 4.875 3 8 C-0.31101209 11.60316022 -3.1915813 12.55270524 -8 13 C-8 12.01 -8 11.02 -8 10 C-6.20963542 9.05598958 -4.41927083 8.11197917 -2.62890625 7.16796875 C-0.67732013 6.00980201 -0.67732013 6.00980201 0 3 C-7.8441194 4.25601684 -7.8441194 4.25601684 -14 9 C-14.16163553 12.09390317 -14.16163553 12.09390317 -14 15 C-13.08476563 15.47050781 -12.16953125 15.94101562 -11.2265625 16.42578125 C-10.02583262 17.05428829 -8.8253232 17.68321663 -7.625 18.3125 C-6.72007813 18.7755957 -6.72007813 18.7755957 -5.796875 19.24804688 C-2.61741675 20.92609428 -1.03462448 21.94806328 1 25 C1.4375 27.9375 1.4375 27.9375 1 31 C-2.43644713 34.43644713 -5.20280378 35.93406736 -10.09448242 36.11352539 C-11.95617065 36.10567017 -11.95617065 36.10567017 -13.85546875 36.09765625 C-14.84792351 36.09553383 -14.84792351 36.09553383 -15.86042786 36.09336853 C-17.96949828 36.08777996 -20.07846177 36.07522965 -22.1875 36.0625 C-23.61913909 36.05748352 -25.05077985 36.05292087 -26.48242188 36.04882812 C-29.98831588 36.0378143 -33.4941475 36.02055755 -37 36 C-36.67 35.01 -36.34 34.02 -36 33 C-35.24380371 32.98018066 -34.48760742 32.96036133 -33.70849609 32.93994141 C-30.26366282 32.84435428 -26.81940799 32.73481109 -23.375 32.625 C-22.18519531 32.5940625 -20.99539062 32.563125 -19.76953125 32.53125 C-18.61582031 32.49257813 -17.46210937 32.45390625 -16.2734375 32.4140625 C-15.21560059 32.3826416 -14.15776367 32.3512207 -13.06787109 32.31884766 C-9.80798001 31.98004312 -7.06242545 31.14389417 -4 30 C-4 28.35 -4 26.7 -4 25 C-4.74765625 24.61328125 -5.4953125 24.2265625 -6.265625 23.828125 C-7.25046875 23.30734375 -8.2353125 22.7865625 -9.25 22.25 C-10.22453125 21.73953125 -11.1990625 21.2290625 -12.203125 20.703125 C-14.95812695 19.02549811 -16.93900985 17.47414901 -19 15 C-19.5625 11.5625 -19.5625 11.5625 -19 8 C-16.8125 5.25 -16.8125 5.25 -14 3 C-13.2575 2.401875 -12.515 1.80375 -11.75 1.1875 C-7.88475296 -0.48158395 -4.15684946 -0.5993959 0 0 Z " fill="#E5E5E5" transform="translate(80,3)"/>
<path d="M0 0 C0.99 0 1.98 0 3 0 C3 0.99 3 1.98 3 3 C3.556875 2.505 4.11375 2.01 4.6875 1.5 C7.39516153 -0.25632099 8.83379087 -0.34229288 12 0 C13 1 13 1 13.1875 4.1875 C13.00651269 7.86757532 12.33113308 10.58897147 11 14 C12.65 14 14.3 14 16 14 C15.9175 12.783125 15.835 11.56625 15.75 10.3125 C15.75 7.01081742 15.98284769 6.02879137 17.75 3.0625 C19.95750669 1.0389522 21.06829636 0.3141111 24 0 C23.505 0.825 23.01 1.65 22.5 2.5 C20.63941317 6.84136927 20.53214587 9.32145867 21 14 C21.99 14.66 22.98 15.32 24 16 C23 17 23 17 19.875 17.1328125 C18.59625 17.13023438 17.3175 17.12765625 16 17.125 C14.72125 17.12757812 13.4425 17.13015625 12.125 17.1328125 C9 17 9 17 8 16 C7.75338042 11.06760838 7.74931087 7.50137826 10 3 C4.83512361 5.86937577 1.66290388 8.01128837 -0.25 13.75 C-0.4975 14.8225 -0.745 15.895 -1 17 C-2.32 17 -3.64 17 -5 17 C-4.35841048 14.35307023 -3.71195217 11.70750071 -3.0625 9.0625 C-2.88009766 8.30775391 -2.69769531 7.55300781 -2.50976562 6.77539062 C-1.11328125 1.11328125 -1.11328125 1.11328125 0 0 Z " fill="#EFEFEF" transform="translate(87,21)"/>
<path d="M0 0 C2.64 0 5.28 0 8 0 C8.12375 0.804375 8.2475 1.60875 8.375 2.4375 C8.58125 3.613125 8.7875 4.78875 9 6 C9.18369141 7.10214844 9.18369141 7.10214844 9.37109375 8.2265625 C10.30180654 13.15192751 11.40894529 16.28924347 15 20 C13.35 20.33 11.7 20.66 10 21 C10 21.33 10 21.66 10 22 C6.7 22 3.4 22 0 22 C0 14.74 0 7.48 0 0 Z " fill="#CAAE57" transform="translate(3,15)"/>
<path d="M0 0 C0.33 0 0.66 0 1 0 C1 1.65 1 3.3 1 5 C2.98 5 4.96 5 7 5 C7 6.32 7 7.64 7 9 C5.35 9 3.7 9 2 9 C1.67 9.66 1.34 10.32 1 11 C3.04190981 10.85761163 5.08352045 10.71092972 7.125 10.5625 C8.83042969 10.44068359 8.83042969 10.44068359 10.5703125 10.31640625 C13.7540478 10.02269035 16.85510907 9.56875687 20 9 C20 6.69 20 4.38 20 2 C22.97 2 25.94 2 29 2 C29.3125 5.3125 29.3125 5.3125 29 9 C26.5 10.9375 26.5 10.9375 24 12 C25.32 12.99 26.64 13.98 28 15 C27.67 15.66 27.34 16.32 27 17 C26.01 16.34 25.02 15.68 24 15 C18.56431493 14.49441113 18.56431493 14.49441113 13.625 16.3125 C11.79975666 18.10798342 11.79975666 18.10798342 10 21 C9.67 20.01 9.34 19.02 9 18 C9.33 17.34 9.66 16.68 10 16 C9.34 15.67 8.68 15.34 8 15 C8.66 14.34 9.32 13.68 10 13 C6.37 12.67 2.74 12.34 -1 12 C-1.125 2.25 -1.125 2.25 0 0 Z " fill="#848485" transform="translate(2,1)"/>
<path d="M0 0 C3.14581423 -0.02888514 6.29159469 -0.04675923 9.4375 -0.0625 C10.33533203 -0.07087891 11.23316406 -0.07925781 12.15820312 -0.08789062 C13.01220703 -0.09111328 13.86621094 -0.09433594 14.74609375 -0.09765625 C15.93223267 -0.10551147 15.93223267 -0.10551147 17.14233398 -0.11352539 C19 0 19 0 20 1 C20.09823937 2.66429051 20.12973631 4.33281931 20.125 6 C20.12886719 7.36125 20.12886719 7.36125 20.1328125 8.75 C20 11 20 11 19 12 C17.48071962 12.07179964 15.95832518 12.08392007 14.4375 12.0625 C13.61121094 12.05347656 12.78492188 12.04445313 11.93359375 12.03515625 C11.29550781 12.02355469 10.65742187 12.01195312 10 12 C10.99 13.1446875 10.99 13.1446875 12 14.3125 C15.05847901 18.7817563 14.33250667 23.80920149 14 29 C13.01 29.33 12.02 29.66 11 30 C11.05800781 29.26394531 11.11601563 28.52789063 11.17578125 27.76953125 C11.58024086 21.44931827 11.58024086 21.44931827 8.75 16 C7.8425 15.34 6.935 14.68 6 14 C5.236875 13.401875 4.47375 12.80375 3.6875 12.1875 C3.130625 11.795625 2.57375 11.40375 2 11 C4 9 4 9 6.625 8.875 C7.40875 8.91625 8.1925 8.9575 9 9 C9 6.36 9 3.72 9 1 C6.03 1 3.06 1 0 1 C0 0.67 0 0.34 0 0 Z " fill="#B6B6B5" transform="translate(22,1)"/>
<path d="M0 0 C2.97 0 5.94 0 9 0 C9 7.26 9 14.52 9 22 C5.37 22 1.74 22 -2 22 C-1.01 21.01 -0.02 20.02 1 19 C2.14566371 15.87425855 2.16477868 12.80822477 2.1875 9.5 C2.20167969 8.5615625 2.21585938 7.623125 2.23046875 6.65625 C2.13430048 3.65489186 2.13430048 3.65489186 0 0 Z " fill="#DFBC34" transform="translate(33,15)"/>
<path d="M0 0 C3.5 0.1875 3.5 0.1875 5.5 1.1875 C5.5 4.4875 5.5 7.7875 5.5 11.1875 C2.72899606 12.57300197 0.5665294 12.3752467 -2.5 12.1875 C-3.49 11.5275 -4.48 10.8675 -5.5 10.1875 C-5.86328125 8.3125 -5.86328125 8.3125 -5.8125 6.1875 C-5.80669922 5.135625 -5.80669922 5.135625 -5.80078125 4.0625 C-5.19735191 0.30086254 -3.56462746 0.19096219 0 0 Z " fill="#7DA4D4" transform="translate(21.5,19.8125)"/>
<path d="M0 0 C2.27076842 -0.02699725 4.54162821 -0.04639453 6.8125 -0.0625 C8.07707031 -0.07410156 9.34164063 -0.08570313 10.64453125 -0.09765625 C14 0 14 0 17 1 C21.654797 1.3053818 21.654797 1.3053818 26 0 C28.37402501 -0.07116382 30.75000677 -0.08409085 33.125 -0.0625 C34.40632813 -0.05347656 35.68765625 -0.04445312 37.0078125 -0.03515625 C38.48894531 -0.01775391 38.48894531 -0.01775391 40 0 C39.67 0.99 39.34 1.98 39 3 C26.46 3 13.92 3 1 3 C0.67 2.01 0.34 1.02 0 0 Z " fill="#C4C4C5" transform="translate(2,38)"/>
<path d="M0 0 C2.8100346 1.79363911 4.50940468 3.01880935 6 6 C6.1875 9.5 6.1875 9.5 6 13 C5.34 13.66 4.68 14.32 4 15 C3.34 15 2.68 15 2 15 C2 11.7 2 8.4 2 5 C-3.86356513 3.81985686 -3.86356513 3.81985686 -9.4375 5.125 C-11.24615667 7.295388 -12.13172876 9.32283036 -13 12 C-13.33 12 -13.66 12 -14 12 C-13.63870968 4.77419355 -13.63870968 4.77419355 -10.9375 1.5 C-7.14701534 -0.43556664 -4.17583322 -0.86047472 0 0 Z " fill="#07050F" transform="translate(26,15)"/>
<path d="M0 0 C6.27 0 12.54 0 19 0 C18.67 3.3 18.34 6.6 18 10 C15.36 10 12.72 10 10 10 C9.67 7.36 9.34 4.72 9 2 C6.03 1.67 3.06 1.34 0 1 C0 0.67 0 0.34 0 0 Z " fill="#D5D5D5" transform="translate(22,1)"/>
<path d="M0 0 C0.99 0 1.98 0 3 0 C3 0.99 3 1.98 3 3 C4.32 2.01 5.64 1.02 7 0 C9 1 9 1 10 3 C9.2575 3.4125 8.515 3.825 7.75 4.25 C2.22979901 7.76285518 0.48311993 10.57314699 -1 17 C-2.32 17 -3.64 17 -5 17 C-4.35841048 14.35307023 -3.71195217 11.70750071 -3.0625 9.0625 C-2.88009766 8.30775391 -2.69769531 7.55300781 -2.50976562 6.77539062 C-1.11328125 1.11328125 -1.11328125 1.11328125 0 0 Z " fill="#E5E5E5" transform="translate(87,21)"/>
<path d="M0 0 C3.96 0 7.92 0 12 0 C11.67 0.66 11.34 1.32 11 2 C8.03 2 5.06 2 2 2 C2 9.26 2 16.52 2 24 C3.77375 23.79375 5.5475 23.5875 7.375 23.375 C10.3984375 23.0234375 10.3984375 23.0234375 13 23 C13.66 23.66 14.32 24.32 15 25 C10.05 25.33 5.1 25.66 0 26 C0 17.42 0 8.84 0 0 Z " fill="#977943" transform="translate(1,13)"/>
<path d="M0 0 C1.65 0.33 3.3 0.66 5 1 C5.47877076 5.11742854 5.32165374 6.58006317 2.75 9.9375 C0 12 0 12 -2.3125 11.8125 C-2.869375 11.544375 -3.42625 11.27625 -4 11 C-4.36630156 7.06225823 -4.30233203 5.43460229 -2 2.125 C-1.34 1.42375 -0.68 0.7225 0 0 Z " fill="#070707" transform="translate(185,23)"/>
<path d="M0 0 C0.86625 0.37125 0.86625 0.37125 1.75 0.75 C2.51534775 3.5052519 2.94022104 5.19518864 2 7.9375 C0.75 9.75 0.75 9.75 -2.25 11.75 C-3.57 11.75 -4.89 11.75 -6.25 11.75 C-6.73590022 4.46149675 -6.73590022 4.46149675 -4.5 1.1875 C-2.25 -0.25 -2.25 -0.25 0 0 Z " fill="#060606" transform="translate(113.25,23.25)"/>
<path d="M0 0 C0.99 0 1.98 0 3 0 C3.01417969 0.71285156 3.02835938 1.42570312 3.04296875 2.16015625 C3.38675404 9.06373651 4.46195768 12.76379732 9 18 C3.50581395 18.36627907 3.50581395 18.36627907 1.1875 16.6875 C-0.91522866 13.69941191 -1.13679102 11.0373046 -1.125 7.5 C-1.12757813 6.7265625 -1.13015625 5.953125 -1.1328125 5.15625 C-1 3 -1 3 0 0 Z " fill="#A2A2A3" transform="translate(9,17)"/>
<path d="M0 0 C8.25 0 16.5 0 25 0 C24.67 0.99 24.34 1.98 24 3 C15.75 3 7.5 3 -1 3 C-0.67 2.01 -0.34 1.02 0 0 Z " fill="#F1F1F1" transform="translate(44,36)"/>
<path d="M0 0 C0.33 0 0.66 0 1 0 C1.33 11.55 1.66 23.1 2 35 C-1.05269846 36.52634923 -3.75845689 35.83794444 -7.125 35.5625 C-8.40632813 35.46066406 -9.68765625 35.35882813 -11.0078125 35.25390625 C-11.99523437 35.17011719 -12.98265625 35.08632813 -14 35 C-9.34386481 31.89590987 -5.47026886 33.35643896 0 34 C0 26.74 0 19.48 0 12 C-3.3 12 -6.6 12 -10 12 C-10 11.34 -10 10.68 -10 10 C-5.545 9.505 -5.545 9.505 -1 9 C-0.67 6.03 -0.34 3.06 0 0 Z " fill="#715C3B" transform="translate(42,3)"/>
<path d="M0 0 C2.97 0 5.94 0 9 0 C9 2.31 9 4.62 9 7 C6.03 7 3.06 7 0 7 C0 4.69 0 2.38 0 0 Z " fill="#040707" transform="translate(22,3)"/>
<path d="M0 0 C1.32 0.33 2.64 0.66 4 1 C5.625 3.8125 5.625 3.8125 7 7 C7.66 8.32 8.32 9.64 9 11 C6.03 11 3.06 11 0 11 C0 7.37 0 3.74 0 0 Z " fill="#E7C53C" transform="translate(4,26)"/>
<path d="M0 0 C2.33294775 -0.04241723 4.66702567 -0.04092937 7 0 C8 1 8 1 8.375 3.8125 C8 7 8 7 5.875 9.3125 C2.81717094 11.10731271 0.50694059 11.67377297 -3 12 C-3 11.01 -3 10.02 -3 9 C-0.69 7.68 1.62 6.36 4 5 C4 4.01 4 3.02 4 2 C2.68 1.34 1.36 0.68 0 0 Z " fill="#F1F1F1" transform="translate(75,4)"/>
<path d="M0 0 C2.64 0 5.28 0 8 0 C8 0.99 8 1.98 8 3 C8.99 3 9.98 3 11 3 C11 3.66 11 4.32 11 5 C7.04 5 3.08 5 -1 5 C-0.67 3.35 -0.34 1.7 0 0 Z " fill="#A8A8A8" transform="translate(4,0)"/>
<path d="M0 0 C3.5 0.1875 3.5 0.1875 5.5 1.1875 C5.5 2.8375 5.5 4.4875 5.5 6.1875 C5.108125 5.548125 4.71625 4.90875 4.3125 4.25 C2.11527704 1.74971181 0.74208567 1.53799575 -2.5 1.1875 C-2.83 3.8275 -3.16 6.4675 -3.5 9.1875 C1.15052872 9.45682521 1.15052872 9.45682521 5.5 8.1875 C5.5 9.1775 5.5 10.1675 5.5 11.1875 C2.72899606 12.57300197 0.5665294 12.3752467 -2.5 12.1875 C-3.49 11.5275 -4.48 10.8675 -5.5 10.1875 C-5.86328125 8.3125 -5.86328125 8.3125 -5.8125 6.1875 C-5.80669922 5.135625 -5.80669922 5.135625 -5.80078125 4.0625 C-5.19735191 0.30086254 -3.56462746 0.19096219 0 0 Z " fill="#4F90A8" transform="translate(21.5,19.8125)"/>
<path d="M0 0 C2.27057377 -0.05398987 4.54151288 -0.09278742 6.8125 -0.125 C8.07707031 -0.14820313 9.34164063 -0.17140625 10.64453125 -0.1953125 C14 0 14 0 17 2 C13.99686252 3.50156874 11.20932478 3.09281204 7.875 3.0625 C6.59367188 3.05347656 5.31234375 3.04445312 3.9921875 3.03515625 C2.51105469 3.01775391 2.51105469 3.01775391 1 3 C0.67 2.01 0.34 1.02 0 0 Z " fill="#BCBCBE" transform="translate(2,38)"/>
<path d="M0 0 C0.99 0.33 1.98 0.66 3 1 C2.75 3.375 2.75 3.375 2 6 C-1.10830913 8.41757377 -4.17917999 8.24918391 -8 8 C-8.66 7.67 -9.32 7.34 -10 7 C-9.67 6.01 -9.34 5.02 -9 4 C-6.03 4 -3.06 4 0 4 C0 2.68 0 1.36 0 0 Z " fill="#464B50" transform="translate(27,27)"/>
<path d="M0 0 C0 0.99 0 1.98 0 3 C-1.98 3.66 -3.96 4.32 -6 5 C-6 5.66 -6 6.32 -6 7 C-8.31 7 -10.62 7 -13 7 C-13.33 6.01 -13.66 5.02 -14 4 C-13.11248047 3.81824219 -13.11248047 3.81824219 -12.20703125 3.6328125 C-7.96196415 2.73255357 -3.97560339 1.79543379 0 0 Z " fill="#9A927B" transform="translate(34,32)"/>
<path d="M0 0 C2.31 0 4.62 0 7 0 C5.75 3.4375 5.75 3.4375 4 7 C1.8125 7.9375 1.8125 7.9375 0 8 C0 5.36 0 2.72 0 0 Z " fill="#E6C238" transform="translate(4,15)"/>
<path d="M0 0 C0.99 0 1.98 0 3 0 C2.835 0.515625 2.67 1.03125 2.5 1.5625 C1.57393149 6.07708398 1.58996391 10.59363721 3 15 C2.01 14.67 1.02 14.34 0 14 C-1.17635297 11.64729407 -1.13359359 10.179248 -1.125 7.5625 C-1.12757813 6.78003906 -1.13015625 5.99757813 -1.1328125 5.19140625 C-1 3 -1 3 0 0 Z " fill="#F0F2F1" transform="translate(9,17)"/>
<path d="M0 0 C0.33 0 0.66 0 1 0 C1 1.65 1 3.3 1 5 C2.98 5 4.96 5 7 5 C7 6.32 7 7.64 7 9 C6.21625 8.95875 5.4325 8.9175 4.625 8.875 C1.83883881 8.71271266 1.83883881 8.71271266 0 11 C0 7.37 0 3.74 0 0 Z " fill="#717171" transform="translate(2,1)"/>
<path d="M0 0 C0.99 0.33 1.98 0.66 3 1 C3 4.63 3 8.26 3 12 C2.01 12.33 1.02 12.66 0 13 C0 8.71 0 4.42 0 0 Z " fill="#F4F5F4" transform="translate(33,18)"/>
<path d="M0 0 C1.32 0 2.64 0 4 0 C4 5.28 4 10.56 4 16 C3.34 16.33 2.68 16.66 2 17 C2.02320313 16.10796875 2.04640625 15.2159375 2.0703125 14.296875 C2.09738281 12.54117187 2.09738281 12.54117187 2.125 10.75 C2.14820313 9.58984375 2.17140625 8.4296875 2.1953125 7.234375 C2.0103949 4.17213954 1.60823023 2.55797249 0 0 Z " fill="#C9AC4A" transform="translate(33,15)"/>
<path d="M0 0 C2.31 0 4.62 0 7 0 C7.33 0.99 7.66 1.98 8 3 C5.36 3 2.72 3 0 3 C0 2.01 0 1.02 0 0 Z " fill="#5A5E67" transform="translate(22,3)"/>
<path d="M0 0 C0.33 0 0.66 0 1 0 C3 7.625 3 7.625 3 11 C1.35 9.35 -0.3 7.7 -2 6 C-1.34 4.02 -0.68 2.04 0 0 Z " fill="#282B39" transform="translate(14,22)"/>
<path d="M0 0 C1.32 0 2.64 0 4 0 C4.33 1.32 4.66 2.64 5 4 C3.125 4.625 3.125 4.625 1 5 C0.34 4.34 -0.32 3.68 -1 3 C-0.67 2.01 -0.34 1.02 0 0 Z " fill="#B1E0F0" transform="translate(20,23)"/>
<path d="M0 0 C2 1.5625 2 1.5625 4 4 C4.25 7.75 4.25 7.75 4 11 C3.34 11 2.68 11 2 11 C1.34 7.37 0.68 3.74 0 0 Z " fill="#8D8D8E" transform="translate(30,16)"/>
<path d="M0 0 C6.75 -0.125 6.75 -0.125 9 1 C9 2.65 9 4.3 9 6 C8.608125 5.360625 8.21625 4.72125 7.8125 4.0625 C5.61527704 1.56221181 4.24208567 1.35049575 1 1 C0.67 1.99 0.34 2.98 0 4 C-0.66 4 -1.32 4 -2 4 C-1.34 2.68 -0.68 1.36 0 0 Z " fill="#6062B2" transform="translate(18,20)"/>
<path d="M0 0 C0.598125 0.165 1.19625 0.33 1.8125 0.5 C4.11344336 1.1114124 4.11344336 1.1114124 7 1 C7 1.99 7 2.98 7 4 C3.71023192 5.09658936 2.28696233 4.79953138 -1 4 C-0.67 2.68 -0.34 1.36 0 0 Z " fill="#CECECE" transform="translate(111,20)"/>
<path d="M0 0 C0.66 0.33 1.32 0.66 2 1 C2.625 3.0625 2.625 3.0625 3 5 C2.67 4.34 2.34 3.68 2 3 C1.01 3.66 0.02 4.32 -1 5 C-1.99 5 -2.98 5 -4 5 C-2.25 1.125 -2.25 1.125 0 0 Z " fill="#DADADA" transform="translate(167,22)"/>
<path d="M0 0 C3.375 0.3125 3.375 0.3125 7 1 C7.66 1.99 8.32 2.98 9 4 C6.1875 4.25 6.1875 4.25 3 4 C1.125 2 1.125 2 0 0 Z " fill="#B3B3B4" transform="translate(9,31)"/>
<path d="M0 0 C2.31 0.33 4.62 0.66 7 1 C7 1.99 7 2.98 7 4 C4.69 4 2.38 4 0 4 C0 2.68 0 1.36 0 0 Z " fill="#6ADAE0" transform="translate(18,26)"/>
<path d="M0 0 C2.875 -0.125 2.875 -0.125 6 0 C6.66 0.66 7.32 1.32 8 2 C5.36 2.33 2.72 2.66 0 3 C0 2.01 0 1.02 0 0 Z " fill="#8F8F8F" transform="translate(20,10)"/>
<path d="M0 0 C1.98 0 3.96 0 6 0 C6.33 0.99 6.66 1.98 7 3 C5.02 3 3.04 3 1 3 C0.67 2.01 0.34 1.02 0 0 Z " fill="#8E8E8E" transform="translate(20,36)"/>
<path d="M0 0 C2.97 0.495 2.97 0.495 6 1 C6 1.66 6 2.32 6 3 C1.25 4.125 1.25 4.125 -1 3 C-0.67 2.01 -0.34 1.02 0 0 Z " fill="#555D60" transform="translate(18,31)"/>
<path d="M0 0 C0.99 0.33 1.98 0.66 3 1 C3 3.31 3 5.62 3 8 C2.34 8 1.68 8 1 8 C0.67 5.36 0.34 2.72 0 0 Z " fill="#17315B" transform="translate(26,19)"/>
<path d="M0 0 C2.31 0 4.62 0 7 0 C5.75 1.5 5.75 1.5 4 3 C2.68 3 1.36 3 0 3 C0 2.01 0 1.02 0 0 Z " fill="#1B2930" transform="translate(23,6)"/>
</svg>
